<?xml version="1.0" encoding="utf-8"?>
<!-- Generator: Adobe Illustrator 27.3.1, SVG Export Plug-In . SVG Version: 6.00 Build 0)  -->
<svg version="1.1" id="Layer_1" xmlns="http://www.w3.org/2000/svg" xmlns:xlink="http://www.w3.org/1999/xlink" x="0px" y="0px"
	 viewBox="0 0 297 48" style="enable-background:new 0 0 297 48;" xml:space="preserve">
<style type="text/css">
	.st0{fill:#FFFFFF;}
</style>
<g>
	<g>
		<g>
			<g>
				<path class="st0" d="M60.6,28.9c-1.5,0-2.8-0.2-4-0.7s-2.2-1.2-3-2.1l3.4-4.1c0.5,0.6,1,1.1,1.5,1.4c0.5,0.3,1,0.5,1.5,0.5
					c1.4,0,2-0.8,2-2.4v-7.2h-6.4V9.5h12.7v11.6c0,2.6-0.7,4.5-2,5.8S63.2,28.9,60.6,28.9z"/>
				<path class="st0" d="M69.3,28.4l8.3-18.9h6.3l8.3,18.9h-6.6l-6.1-15.9h2.5l-6.1,15.9H69.3z M74.2,25.1l1.6-4.6h8.7l1.6,4.6H74.2
					z"/>
				<path class="st0" d="M93.2,28.4V9.5h9.3c2.1,0,4,0.4,5.6,1.1c1.6,0.8,2.9,1.9,3.8,3.3s1.3,3.1,1.3,5c0,2-0.4,3.7-1.3,5.1
					c-0.9,1.4-2.2,2.5-3.8,3.3c-1.6,0.8-3.5,1.1-5.6,1.1H93.2z M99.6,23.4h2.7c0.9,0,1.7-0.2,2.4-0.5s1.2-0.9,1.6-1.5
					c0.4-0.7,0.6-1.5,0.6-2.5c0-1-0.2-1.8-0.6-2.4c-0.4-0.7-0.9-1.2-1.6-1.5s-1.5-0.5-2.4-0.5h-2.7V23.4z"/>
				<path class="st0" d="M121.8,23.6h9.5v4.8h-15.7V9.5h15.4v4.8h-9.1V23.6z M121.3,16.5h8.4v4.6h-8.4
					C121.3,21.1,121.3,16.5,121.3,16.5z"/>
				<path class="st0" d="M140,23.6h9.5v4.8h-15.7V9.5h15.4v4.8H140V23.6z M139.6,16.5h8.4v4.6h-8.4V16.5z"/>
				<path class="st0" d="M151.9,28.4V9.5h9.3c2.1,0,4,0.4,5.6,1.1c1.6,0.8,2.9,1.9,3.8,3.3s1.4,3.1,1.4,5c0,2-0.4,3.7-1.4,5.1
					c-0.9,1.4-2.2,2.5-3.8,3.3c-1.6,0.8-3.5,1.1-5.6,1.1H151.9z M158.3,23.4h2.7c0.9,0,1.7-0.2,2.4-0.5s1.2-0.9,1.6-1.5
					c0.4-0.7,0.6-1.5,0.6-2.5c0-1-0.2-1.8-0.6-2.4c-0.4-0.7-0.9-1.2-1.6-1.5c-0.7-0.3-1.5-0.5-2.4-0.5h-2.7V23.4z"/>
				<path class="st0" d="M182.4,28.4V9.5h5.2l7.6,12.4h-2.8l7.4-12.4h5.2l0.1,18.9h-5.8l-0.1-10.2h0.9l-5,8.5h-2.8l-5.2-8.5h1.1
					v10.2H182.4z"/>
				<path class="st0" d="M217.2,28.9c-2.9,0-5.2-0.8-6.8-2.4c-1.6-1.6-2.4-3.8-2.4-6.6V9.5h6.4v10.2c0,1.4,0.3,2.5,0.8,3.1
					s1.2,0.9,2.1,0.9c0.9,0,1.6-0.3,2.1-0.9s0.8-1.6,0.8-3.1V9.5h6.3v10.4c0,2.8-0.8,5-2.4,6.6C222.4,28.1,220.1,28.9,217.2,28.9z"
					/>
				<path class="st0" d="M229.4,28.4V9.5h5.2l9.6,11.5h-2.4V9.5h6.2v18.9h-5.2l-9.6-11.5h2.4v11.5H229.4z"/>
				<path class="st0" d="M258.2,28.9c-1.6,0-3.1-0.2-4.6-0.5s-2.7-0.8-3.6-1.4l2.1-4.6c0.9,0.5,1.9,0.9,3,1.3
					c1.1,0.3,2.2,0.5,3.2,0.5c0.6,0,1.1,0,1.5-0.1s0.6-0.2,0.8-0.4s0.2-0.3,0.2-0.5c0-0.3-0.2-0.6-0.6-0.8s-0.9-0.4-1.5-0.5
					c-0.6-0.1-1.3-0.3-2-0.4c-0.7-0.1-1.5-0.4-2.2-0.6s-1.4-0.6-2.1-1c-0.6-0.4-1.1-1-1.5-1.6s-0.6-1.5-0.6-2.5c0-1.2,0.3-2.2,1-3.2
					c0.7-1,1.6-1.7,2.9-2.3c1.3-0.6,2.9-0.9,4.9-0.9c1.3,0,2.5,0.1,3.8,0.4s2.4,0.7,3.4,1.2l-1.9,4.6c-0.9-0.5-1.8-0.8-2.7-1.1
					s-1.7-0.4-2.5-0.4c-0.6,0-1.1,0.1-1.5,0.2s-0.6,0.2-0.8,0.4s-0.2,0.4-0.2,0.6c0,0.3,0.2,0.6,0.6,0.8c0.4,0.2,0.9,0.4,1.5,0.5
					c0.6,0.1,1.3,0.3,2,0.4s1.5,0.3,2.2,0.6c0.7,0.2,1.4,0.6,2,1c0.6,0.4,1.1,1,1.5,1.6c0.4,0.7,0.6,1.5,0.6,2.5
					c0,1.1-0.3,2.2-1,3.2c-0.7,1-1.6,1.7-2.9,2.3C261.8,28.6,260.1,28.9,258.2,28.9z"/>
				<path class="st0" d="M275.3,28.4h-6.4V9.5h6.4V28.4z M281.6,21.4h-6.8v-5.2h6.8V21.4z M281.2,9.5h6.4v18.9h-6.4V9.5z"/>
				<path class="st0" d="M290.6,28.4V9.5h6.4v18.9H290.6z"/>
			</g>
		</g>
	</g>
	<g>
		<g>
			<path class="st0" d="M60.7,34.2l-0.5,0.4c-0.3-0.4-0.7-0.7-1.1-0.9c-0.4-0.2-0.9-0.3-1.4-0.3c-0.5,0-1,0.1-1.5,0.4
				s-0.8,0.6-1.1,1c-0.3,0.4-0.4,0.9-0.4,1.5c0,0.8,0.3,1.5,0.9,2s1.3,0.8,2.2,0.8c1,0,1.8-0.4,2.4-1.1l0.5,0.4
				c-0.3,0.4-0.8,0.8-1.3,1c-0.5,0.2-1.1,0.3-1.7,0.3c-1.2,0-2.1-0.4-2.8-1.2c-0.6-0.7-0.9-1.5-0.9-2.4c0-1,0.3-1.8,1-2.5
				s1.6-1,2.6-1c0.6,0,1.2,0.1,1.7,0.4C59.9,33.5,60.3,33.8,60.7,34.2z"/>
			<path class="st0" d="M68.9,32.8c1,0,1.9,0.3,2.6,1s1.1,1.5,1.1,2.5c0,1-0.3,1.8-1,2.5c-0.7,0.7-1.5,1-2.6,1c-1,0-1.9-0.3-2.6-1
				s-1.1-1.5-1.1-2.5c0-0.6,0.2-1.2,0.5-1.8s0.8-1,1.3-1.3C67.7,33,68.3,32.8,68.9,32.8z M68.9,33.5c-0.5,0-1,0.1-1.4,0.4
				c-0.5,0.3-0.8,0.6-1.1,1c-0.3,0.4-0.4,0.9-0.4,1.5c0,0.8,0.3,1.5,0.8,2s1.2,0.8,2,0.8c0.5,0,1-0.1,1.5-0.4c0.4-0.2,0.8-0.6,1.1-1
				c0.2-0.4,0.4-0.9,0.4-1.5c0-0.5-0.1-1-0.4-1.4s-0.6-0.8-1.1-1C69.9,33.6,69.5,33.5,68.9,33.5z"/>
			<path class="st0" d="M77.2,39.7l1-6.7h0.1l2.8,5.5l2.8-5.5H84l1,6.7h-0.7l-0.7-4.8l-2.4,4.8H81l-2.4-4.8l-0.7,4.8L77.2,39.7
				L77.2,39.7z"/>
			<path class="st0" d="M89.9,33h1.4c0.8,0,1.3,0,1.6,0.1c0.4,0.1,0.7,0.3,1,0.6s0.4,0.7,0.4,1.1s-0.1,0.8-0.4,1.1s-0.6,0.5-1,0.6
				c-0.3,0.1-0.9,0.1-1.7,0.1h-0.5v3.1h-0.7C89.9,39.7,89.9,33,89.9,33z M90.6,33.7v2.3l1.2,0c0.5,0,0.8,0,1-0.1
				c0.2-0.1,0.4-0.2,0.5-0.4c0.1-0.2,0.2-0.4,0.2-0.6c0-0.2-0.1-0.4-0.2-0.6c-0.1-0.2-0.3-0.3-0.5-0.4s-0.5-0.1-1-0.1L90.6,33.7
				L90.6,33.7z"/>
			<path class="st0" d="M99.2,33h0.7v6.1h2.6v0.7h-3.3V33z"/>
			<path class="st0" d="M107.2,33h3.9v0.7h-3.2v2.1h3.2v0.7h-3.2v2.6h3.2v0.7h-3.9V33z"/>
			<path class="st0" d="M115.3,33.7V33h3.8v0.7h-1.5v6h-0.7v-6L115.3,33.7L115.3,33.7z"/>
			<path class="st0" d="M123.6,33h3.9v0.7h-3.2v2.1h3.2v0.7h-3.2v2.6h3.2v0.7h-3.9V33z"/>
			<path class="st0" d="M138.6,33h3.4v0.7h-2.7v2.1h2.7v0.7h-2.7v3.3h-0.7L138.6,33L138.6,33z"/>
			<path class="st0" d="M146.7,33h0.7v6.7h-0.7V33z"/>
			<path class="st0" d="M152.6,39.7V33h0.1l4.6,5.1V33h0.7v6.7h-0.1l-4.5-5.1v5.1L152.6,39.7L152.6,39.7z"/>
			<path class="st0" d="M166.1,33l3.2,6.7h-0.7l-1.1-2.2h-2.9l-1.1,2.2h-0.8l3.2-6.7H166.1z M166,34.4l-1.2,2.4h2.3L166,34.4z"/>
			<path class="st0" d="M173.9,39.7V33h0.1l4.6,5.1V33h0.7v6.7h-0.1l-4.5-5.1v5.1L173.9,39.7L173.9,39.7z"/>
			<path class="st0" d="M191,34.2l-0.5,0.4c-0.3-0.4-0.6-0.7-1.1-0.9c-0.4-0.2-0.9-0.3-1.4-0.3c-0.6,0-1.1,0.1-1.5,0.4
				s-0.8,0.6-1.1,1c-0.3,0.4-0.4,0.9-0.4,1.5c0,0.8,0.3,1.5,0.9,2s1.3,0.8,2.2,0.8c1,0,1.8-0.4,2.4-1.1l0.5,0.4
				c-0.3,0.4-0.8,0.8-1.3,1c-0.5,0.2-1.1,0.3-1.7,0.3c-1.2,0-2.1-0.4-2.8-1.2c-0.6-0.7-0.9-1.5-0.9-2.4c0-1,0.4-1.8,1.1-2.5
				s1.6-1,2.6-1c0.6,0,1.2,0.1,1.7,0.4C190.2,33.5,190.6,33.8,191,34.2z"/>
			<path class="st0" d="M195.9,33h0.7v6.7h-0.7V33z"/>
			<path class="st0" d="M204.5,33l3.2,6.7H207l-1.1-2.2H203l-1.1,2.2h-0.8l3.2-6.7H204.5z M204.4,34.4l-1.2,2.4h2.3L204.4,34.4z"/>
			<path class="st0" d="M212.4,33h0.7v6.1h2.6v0.7h-3.3L212.4,33L212.4,33z"/>
			<path class="st0" d="M226,38.5l0.6-0.3c0.4,0.7,0.9,1.1,1.4,1.1c0.2,0,0.4,0,0.6-0.2c0.2-0.1,0.4-0.2,0.5-0.4
				c0.1-0.2,0.2-0.4,0.2-0.6c0-0.2-0.1-0.5-0.2-0.7c-0.2-0.3-0.6-0.7-1.2-1.1c-0.6-0.4-0.9-0.7-1.1-0.9c-0.2-0.3-0.4-0.7-0.4-1
				c0-0.3,0.1-0.6,0.2-0.8c0.1-0.2,0.3-0.4,0.6-0.6c0.3-0.1,0.5-0.2,0.8-0.2c0.3,0,0.6,0.1,0.9,0.2c0.3,0.2,0.6,0.4,0.9,0.9
				l-0.6,0.4c-0.3-0.3-0.5-0.5-0.7-0.7c-0.2-0.1-0.4-0.2-0.6-0.2c-0.3,0-0.5,0.1-0.7,0.2c-0.2,0.2-0.3,0.4-0.3,0.6
				c0,0.2,0,0.3,0.1,0.4c0.1,0.1,0.2,0.3,0.3,0.5c0.1,0.1,0.4,0.3,0.9,0.7c0.6,0.4,1,0.8,1.2,1.1c0.2,0.3,0.3,0.7,0.3,1
				c0,0.5-0.2,0.9-0.6,1.3c-0.4,0.4-0.8,0.5-1.4,0.5c-0.4,0-0.8-0.1-1.1-0.3C226.6,39.3,226.3,39,226,38.5z"/>
			<path class="st0" d="M238.3,32.8c1,0,1.9,0.3,2.6,1c0.7,0.7,1.1,1.5,1.1,2.5c0,1-0.4,1.8-1,2.5c-0.7,0.7-1.6,1-2.6,1
				c-1,0-1.9-0.3-2.6-1c-0.7-0.7-1.1-1.5-1.1-2.5c0-0.6,0.2-1.2,0.5-1.8s0.8-1,1.3-1.3S237.7,32.8,238.3,32.8z M238.3,33.5
				c-0.5,0-1,0.1-1.4,0.4s-0.8,0.6-1.1,1c-0.2,0.4-0.4,0.9-0.4,1.5c0,0.8,0.3,1.5,0.9,2c0.6,0.5,1.2,0.8,2,0.8c0.5,0,1-0.1,1.5-0.4
				s0.8-0.6,1.1-1c0.2-0.4,0.4-0.9,0.4-1.5c0-0.5-0.1-1-0.4-1.4s-0.6-0.8-1.1-1C239.3,33.6,238.9,33.5,238.3,33.5z"/>
			<path class="st0" d="M246.9,33h0.7v6.1h2.6v0.7h-3.3V33z"/>
			<path class="st0" d="M255,33h0.7v4c0,0.5,0,0.8,0,0.9c0,0.3,0.1,0.5,0.2,0.7c0.1,0.2,0.3,0.3,0.6,0.5s0.5,0.2,0.8,0.2
				c0.2,0,0.4,0,0.6-0.1s0.4-0.2,0.5-0.4c0.1-0.2,0.2-0.4,0.3-0.6c0-0.2,0.1-0.5,0.1-1V33h0.7v4c0,0.6-0.1,1.1-0.2,1.5
				s-0.4,0.7-0.7,1c-0.4,0.3-0.8,0.4-1.3,0.4c-0.5,0-1-0.1-1.4-0.4s-0.7-0.6-0.8-1c-0.1-0.3-0.1-0.7-0.1-1.4L255,33L255,33z"/>
			<path class="st0" d="M264.1,33.7V33h3.8v0.7h-1.5v6h-0.7v-6L264.1,33.7L264.1,33.7z"/>
			<path class="st0" d="M272.4,33h0.7v6.7h-0.7V33z"/>
			<path class="st0" d="M281.5,32.8c1,0,1.9,0.3,2.6,1s1,1.5,1,2.5c0,1-0.4,1.8-1,2.5c-0.7,0.7-1.5,1-2.5,1c-1,0-1.9-0.3-2.6-1
				s-1-1.5-1-2.5c0-0.6,0.2-1.2,0.5-1.8s0.8-1,1.3-1.3S280.9,32.8,281.5,32.8z M281.6,33.5c-0.5,0-1,0.1-1.4,0.4s-0.8,0.6-1.1,1
				c-0.2,0.4-0.4,0.9-0.4,1.5c0,0.8,0.3,1.5,0.9,2c0.6,0.5,1.2,0.8,2,0.8c0.5,0,1-0.1,1.5-0.4s0.8-0.6,1.1-1
				c0.2-0.4,0.4-0.9,0.4-1.5c0-0.5-0.1-1-0.4-1.4s-0.6-0.8-1.1-1C282.6,33.6,282.1,33.5,281.6,33.5z"/>
			<path class="st0" d="M290.2,39.7V33h0.1l4.5,5.1V33h0.7v6.7h-0.1l-4.5-5.1v5.1L290.2,39.7L290.2,39.7z"/>
		</g>
	</g>
</g>
<path class="st0" d="M45.5,0.1H6.3C3.9,0.1,2,2,2,4.4v39.2c0,2.4,1.9,4.3,4.3,4.3h39.2c2.4,0,4.3-1.9,4.3-4.3V4.4
	C49.9,2,47.9,0.1,45.5,0.1z M22.1,26.7c0,2.4-0.6,4.3-1.8,5.5c-1.2,1.2-3,1.8-5.3,1.8c-1.3,0-2.6-0.2-3.7-0.8s-2-1.2-2.8-2.2l2.6-3
	c0.5,0.7,1.1,1.2,1.7,1.6c0.6,0.4,1.3,0.5,2,0.5c1.9,0,2.8-1.1,2.8-3.2v-9.4h-6.9v-3.7h11.5L22.1,26.7L22.1,26.7z M31.1,34.1
	l-7.3-20.2h4.7l7.3,20.2H31.1z M38.7,34.1l-7.3-20.2h4.7l7.3,20.2H38.7z"/>
</svg>
